<?xml version="1.0" encoding="UTF-8"?>
<svg id="uuid-560bbf54-4747-4e1c-808f-a2b19374c1f9" data-name="uuid-0fdbfd69-e1bb-432d-bf9b-a7d8fa3d4566" xmlns="http://www.w3.org/2000/svg" viewBox="0 0 2732 2048">
  <path d="M734,942v73c0,3.71-4.52,11.54-3.15,17.09,2.24,9.01,24.58,17.59,15.26,31.04l-9.81,1.16c-6.07,35.33.2,71.94.67,107.72,27.46,23.63,49.76,53.1,73.99,80.01,44.53,49.44,85.38,102.78,130.95,151.05,10.14,10.75,24.22,21.44,35.11,32.89,23.38,24.59,45.76,50.34,68.17,75.83,29.19,10.59,59.64,1.82,89.88,2.12,15.33.15,34.37,3.69,49.83,4.16,110.32,3.37,221.7,2.64,332-.16,33.66-.86,68.25,2.58,101.1-4.9,5.47-4.65.1-23.08-.1-29.94-.45-15.19,2.82-47.12-2.42-59.58-3.35-7.97-14.69-5.09-15.58-8.81.33-5.92-1.38-16.34,3.1-20.67,2.16-2.08,6.3-1.88,7.96-4.04,6.06-7.89,2.67-71.41.55-84.51-.79-4.87-5.51-25.27-7.04-28.96-5.02-12.09-55.14-66.58-67.46-80.54-58.06-65.78-118.8-129.41-178.06-193.94-9.29-10.11-46.94-60.31-55.88-61.12-7.34.56-14.81,1.98-22.11,2.67-5.96.57-10.85-5.46-12.86,7.56-10.09,65.5,9.62,137.33,1.96,199.96-.27,2.19.1,4.46-1.96,6.02-4.14,2.87-45.94-4.71-55.05-5.2-50.05-2.7-115.03,1.58-166.06,4.1-20.33,1-42.78,7.42-62.16,4.12-39.48-49.32-86.77-92.25-127.88-140.12-22.07-25.69-39.48-54.47-64.99-77.01-19.37-3.89-38.49-2.71-57.98-1.02l.02.02Z"/>
  <path d="M729.24,596.47c-8.47,1.59-2.76,13.14-3.05,18.53-1.15,21.36-3.13,36.17-2.17,58,.17,3.79-2.6,7.7-2.08,11.9.85,6.74,16.95,14.65,16.26,28.12-.57,11.07-8.45,5.98-12.1,7.99-7.72,4.26-2.14,13.27-2.01,19.91.4,19.41-3.76,72.4,3.52,86.48,4.03,7.8,10.78,9.24,15.48,14.52,80.29,90.22,163.39,177.96,243.95,268.05,16.06,17.96,29.39,38.37,47,55,32.44,5.1,64.07,8.46,97.06,7.11,133.96-5.51,268.15.24,401.84-.16,20.19-.06,49.36,2.64,68.18.17,15.63-2.05,5.53-23.37,4.82-35.01-1.17-19.35,3.93-38.38,1.76-57.76-1.75-5.13-12.4-5.02-17.59-8.41-18.86-12.3,10.18-21.28,11.88-29.95l-3.06-100.87c-47.45-67.98-112.22-120.52-164.84-185.16-38.09-46.78-65.9-97.43-112.03-137.97-3.4-2.98-19.68-16.84-22.07-17.93-3.46-1.59-33.05-1.95-36.64-.72-10.48,3.59-7.1,44.49-7.24,54.76-.48,37.02,3.08,74.59,4,111.83.17,6.79,1.13,44.15-1.95,46.22-12.95.9-28.46,4.63-41.13,4.87-62.63,1.18-131.54,2.63-194.02.02-14.27-.6-28.77,1.29-42.94-1.06-39.85-36.66-79.15-76.55-113.98-118.02-18.18-21.64-64.02-90.3-87.61-98.39-10.86-3.72-17.83-.58-27.36-.47-5.4.06-19.5-2.06-21.85-1.62l-.03.02Z"/>
  <path d="M779.43,240.6c-7.66-6.17-45.73-1.52-57.28-.45,1.31,6.4-2.21,13.5-2.22,18.95,0,4.85,2.31,9.26,2.18,13.85-.54,18.87-3.6,38.87-.07,58.02,1.49,8.07,16.12,12.46,16.11,24.08s-12.43,2.66-14.16,11.95-2.15,26-2.07,36.1c.04,4.25,1.99,8.15,2.06,11.93.31,16.83-.26,33.72,1.41,50.42l111.64,110.53,201.02,233.03,162.88-9.12c127.08,8.23,254.66,5.05,382.15,8.04,9.83.23,25.39,8.4,25.02-8.8-.3-14.37-1.68-29.45-2.19-44.04-.35-10.05,1.69-24.52-.35-33.65-1.9-8.53-9.1-7.44-13.61-12.37-12.06-13.19,8.26-18.98,10-28.1,2.01-10.53.53-37.84.13-50.04-.64-19.08-4.85-39.76-3.06-58.83-27.81-35.32-62.24-64.51-93.07-97.03-73.09-77.1-141.42-158.56-214-236.11l-28.66,1.33-3.28,4.72-1.99,207.01-201.09-.09c-23.48-.32-55.7,8.1-78.03,6.2-2.81-.24-5.76.52-7.86-2.14-61.6-74.05-124.38-146.6-191.6-215.38h-.01Z"/>
</svg>