<?xml version="1.0" encoding="UTF-8"?>
<svg id="uuid-ee979c0d-ed25-496c-9dbc-e41a181a159b" data-name="Layer 1" xmlns="http://www.w3.org/2000/svg" viewBox="0 0 2732 2048">
  <defs>
    <style>
      .uuid-e188bd38-e219-4965-832f-d57a9e453cf3 {
        fill: #fff;
      }
    </style>
  </defs>
  <path d="M2732,0v2048H0V0h2732ZM734,942v73c0,3.71-4.52,11.54-3.15,17.09,2.24,9.01,24.58,17.59,15.26,31.04l-9.81,1.16c-6.07,35.33.2,71.94.67,107.72,27.46,23.63,49.76,53.1,73.99,80.01,44.53,49.44,85.38,102.78,130.95,151.05,10.14,10.75,24.22,21.44,35.11,32.89,23.38,24.59,45.76,50.34,68.17,75.83,29.19,10.59,59.64,1.82,89.88,2.12,15.33.15,34.37,3.69,49.83,4.16,110.32,3.37,221.7,2.64,332-.16,33.66-.86,68.25,2.58,101.1-4.9,5.47-4.65.1-23.08-.1-29.94-.45-15.19,2.82-47.12-2.42-59.58-3.35-7.97-14.69-5.09-15.58-8.81.33-5.92-1.38-16.34,3.1-20.67,2.16-2.08,6.3-1.88,7.96-4.04,6.06-7.89,2.67-71.41.55-84.51-.79-4.87-5.51-25.27-7.04-28.96-5.02-12.09-55.14-66.58-67.46-80.54-58.06-65.78-118.8-129.41-178.06-193.94-9.29-10.11-46.94-60.31-55.88-61.12-7.34.56-14.81,1.98-22.11,2.67-5.96.57-10.85-5.46-12.86,7.56-10.09,65.5,9.62,137.33,1.96,199.96-.27,2.19.1,4.46-1.96,6.02-4.14,2.87-45.94-4.71-55.05-5.2-50.05-2.7-115.03,1.58-166.06,4.1-20.33,1-42.78,7.42-62.16,4.12-39.48-49.32-86.77-92.25-127.88-140.12-22.07-25.69-39.48-54.47-64.99-77.01-19.37-3.89-38.49-2.71-57.98-1.02Z"/>
  <path class="uuid-e188bd38-e219-4965-832f-d57a9e453cf3" d="M734,942c19.48-1.69,38.61-2.87,57.98,1.02,25.51,22.54,42.93,51.31,64.99,77.01,41.11,47.87,88.4,90.79,127.88,140.12,19.38,3.3,41.84-3.12,62.16-4.12,51.03-2.52,116.02-6.81,166.06-4.1,9.11.49,50.91,8.08,55.05,5.2,2.06-1.57,1.7-3.83,1.96-6.02,7.66-62.64-12.05-134.46-1.96-199.96,2-13.02,6.89-6.99,12.86-7.56,7.3-.69,14.77-2.11,22.11-2.67,8.94.81,46.59,51.01,55.88,61.12,59.26,64.53,119.99,128.16,178.06,193.94,12.32,13.96,62.44,68.45,67.46,80.54,1.53,3.69,6.25,24.08,7.04,28.96,2.12,13.1,5.51,76.62-.55,84.51-1.66,2.16-5.8,1.96-7.96,4.04-4.48,4.33-2.77,14.75-3.1,20.67.89,3.72,12.24.84,15.58,8.81,5.24,12.46,1.97,44.4,2.42,59.58.2,6.86,5.57,25.28.1,29.94-32.85,7.48-67.45,4.04-101.1,4.9-110.3,2.81-221.68,3.54-332,.16-15.47-.47-34.51-4.02-49.83-4.16-30.24-.29-60.69,8.47-89.88-2.12-22.41-25.48-44.8-51.24-68.17-75.83-10.88-11.45-24.96-22.14-35.11-32.89-45.56-48.27-86.42-101.61-130.95-151.05-24.23-26.91-46.53-56.37-73.99-80.01-.48-35.78-6.74-72.39-.67-107.72l9.81-1.16c9.32-13.46-13.03-22.03-15.26-31.04-1.38-5.55,3.15-13.39,3.15-17.09v-73Z"/>
</svg>