<?xml version="1.0" encoding="UTF-8"?>
<svg id="uuid-f8ef25e0-03a1-4ff0-b3b3-d6fadadf5502" data-name="Layer 1" xmlns="http://www.w3.org/2000/svg" viewBox="0 0 2732 2048">
  <defs>
    <style>
      .uuid-909a8686-4bd3-4b95-a199-0e8982db7734 {
        fill: #fff;
      }
    </style>
  </defs>
  <path d="M2732,0v2048H0V0h2732ZM779.43,240.6c-7.66-6.17-45.73-1.52-57.28-.45,1.31,6.4-2.21,13.5-2.22,18.95,0,4.85,2.31,9.26,2.18,13.85-.54,18.87-3.6,38.87-.07,58.02,1.49,8.07,16.12,12.46,16.11,24.08s-12.43,2.66-14.16,11.95-2.15,26-2.07,36.1c.04,4.25,1.99,8.15,2.06,11.93.31,16.83-.26,33.72,1.41,50.42l111.64,110.53,201.02,233.03,162.88-9.12c127.08,8.23,254.66,5.05,382.15,8.04,9.83.23,25.39,8.4,25.02-8.8-.3-14.37-1.68-29.45-2.19-44.04-.35-10.05,1.69-24.52-.35-33.65-1.9-8.53-9.1-7.44-13.61-12.37-12.06-13.19,8.26-18.98,10-28.1,2.01-10.53.53-37.84.13-50.04-.64-19.08-4.85-39.76-3.06-58.83-27.81-35.32-62.24-64.51-93.07-97.03-73.09-77.1-141.42-158.56-214-236.11l-28.66,1.33-3.28,4.72-1.99,207.01-201.09-.09c-23.48-.32-55.7,8.1-78.03,6.2-2.81-.24-5.76.52-7.86-2.14-61.6-74.05-124.38-146.6-191.6-215.38Z"/>
  <path class="uuid-909a8686-4bd3-4b95-a199-0e8982db7734" d="M779.43,240.6c67.22,68.78,130,141.33,191.6,215.38,2.1,2.67,5.04,1.9,7.86,2.14,22.33,1.91,54.56-6.52,78.03-6.2l201.09.09,1.99-207.01,3.28-4.72,28.66-1.33c72.58,77.54,140.91,159.01,214,236.11,30.83,32.52,65.26,61.71,93.07,97.03-1.79,19.07,2.43,39.75,3.06,58.83.41,12.2,1.88,39.51-.13,50.04-1.74,9.12-22.06,14.92-10,28.1,4.51,4.93,11.71,3.84,13.61,12.37,2.04,9.13,0,23.6.35,33.65.51,14.59,1.89,29.67,2.19,44.04.36,17.19-15.2,9.03-25.02,8.8-127.49-2.99-255.07.2-382.15-8.04l-162.88,9.12-201.02-233.03-111.64-110.53c-1.67-16.7-1.1-33.59-1.41-50.42-.07-3.79-2.02-7.69-2.06-11.93-.09-10.1.27-26.45,2.07-36.1s14.14-.21,14.16-11.95-14.62-16-16.11-24.08c-3.53-19.15-.47-39.15.07-58.02.13-4.59-2.19-9-2.18-13.85,0-5.45,3.53-12.55,2.22-18.95,11.55-1.07,49.62-5.72,57.28.45Z"/>
</svg>