<?xml version="1.0" encoding="UTF-8"?>
<svg id="uuid-1bd68a1d-a83b-4a9a-a53e-b7892c6bea53" data-name="Layer 1" xmlns="http://www.w3.org/2000/svg" viewBox="0 0 2732 2048">
  <path d="M2135.66,579.69c-84.09-52.18-257.53-96.96-356.58-107.05-59.09-6.02-118.74-11.36-178.72-15.77-3.62-3.56-7.17-7.16-10.55-10.84-85.56-93.05-160.77-195.94-254.24-281.57-60.36-10.29-122.36-6.69-183.49-8.37-89.86-2.47-179.01-4.96-269.13-3.49-58.29.95-118.27,2.36-176.38,5.49-13.67.74-40.07-5.84-42.61,11.45,6.46,40.44-2.57,79.83-4.52,119.38-3.66,74.47-1.71,149.63,1.34,225.03-41.89,17.18-80.97,39.9-114.83,70.52-67.57,61.1-147.41,149.21-95.22,245.16,41.96,77.13,129.14,112.58,213.51,131.75-1.08,74.45-1.23,148.82-2.63,223.71-.37,19.96-7,17.51,9.88,33.94,53.42,51.98,89.85,106.18,138.9,161,53.11,59.37,111.49,115.62,166.81,173.07,5.39,5.6,12.66,9.91,17.46,16.53,175.65,7.21,352.94-3.65,529.22,4.4,37.1,1.69,68.26,4.12,105.86,3.9,14.59-.09,28.73,2.09,43.18,1.2,2.05-1.42,1.71-3.88,1.97-6.02,2.36-19.69,1.19-42.65-.2-64.76,51.65.64,103.3,1.97,154.73,5.27l100.71-2.37-.09-90.24c-1.95-6.51-22.17-6.8-23.7-18.48-.94-9.62,16.34-13.11,18.03-21.92l-2.85-98.94c-45.49-66.64-109.45-118.18-160.91-180.8-5.57-6.78-10.96-13.68-16.23-20.66,9.11-16,23.09-28.33,43.24-31.64,5.89-.97,11.64.13,17.24-.75,56.81-8.87,114.87-15.15,172.09-19.76,131.94-10.63,312.74-65.96,312.79-228.76.02-77.52-91.1-180.55-154.06-219.62Z"/>
</svg>